<svg xmlns="http://www.w3.org/2000/svg" viewBox="0 0 68 66" width="68" height="66">
	<style>
		tspan { white-space:pre }
		.shp0 { fill: #95e1d3 } 
	</style>
	<g id="service">
		<g id="1">
			<path id="ALARM" class="shp0" d="M63.48 21.01C60.31 13.61 54.39 7.69 46.99 4.52C48.99 2.95 51.51 2 54.25 2C60.74 2 66 7.26 66 13.75C66 16.49 65.05 19.01 63.48 21.01ZM63 34C63 41.7 59.98 48.69 55.07 53.88L59.13 57.94C59.67 58.47 60 59.21 60 60.03C60 61.67 58.67 63 57.03 63C56.21 63 55.47 62.67 54.94 62.13L50.58 57.77C45.88 61.06 40.17 63 34 63C27.84 63 22.14 61.07 17.45 57.79L13.12 62.12C12.58 62.66 11.83 63 11 63C9.34 63 8 61.66 8 60C8 59.17 8.34 58.42 8.88 57.88L12.9 53.85C8.02 48.66 5 41.69 5 34C5 17.98 17.98 5 34 5C50.02 5 63 17.98 63 34ZM34 11C21.3 11 11 21.3 11 34C11 46.7 21.3 57 34 57C46.7 57 57 46.7 57 34C57 21.3 46.7 11 34 11ZM46 37L34 37C32.34 37 31 35.66 31 34L31 18C31 16.34 32.34 15 34 15C35.66 15 37 16.34 37 18L37 31L46 31C47.66 31 49 32.34 49 34C49 35.66 47.66 37 46 37ZM4.57 21.41C2.97 19.37 2 16.8 2 14C2 7.37 7.37 2 14 2C16.8 2 19.37 2.97 21.41 4.57C13.86 7.81 7.81 13.86 4.57 21.41Z" />
		</g>
	</g>
</svg>