<svg xmlns="http://www.w3.org/2000/svg" viewBox="0 0 68 60" width="68" height="60">
	<style>
		tspan { white-space:pre }
		.shp0 { fill: #95e1d3 } 
	</style>
	<g id="service">
		<g id="3">
			<path id="COMPUTER / OK" class="shp0" d="M62 48L47 48L43 48L43 53L47 57L47 58L21 58L21 57L25 53L25 48L21 48L6 48C4.34 48 3 46.66 3 45L3 5C3 3.34 4.34 2 6 2L62 2C63.66 2 65 3.34 65 5L65 45C65 46.66 63.66 48 62 48ZM61 6L7 6L7 40L61 40L61 6ZM28 20C28.83 20 29.58 20.34 30.12 20.88L30.12 20.88L32 22.76L37.88 16.88L37.88 16.88C38.42 16.33 39.17 16 40 16C41.66 16 43 17.34 43 19C43 19.83 42.66 20.58 42.12 21.12L42.12 21.12L34.12 29.12L34.12 29.12C33.58 29.66 32.83 30 32 30C31.17 30 30.42 29.66 29.88 29.12L29.88 29.12L25.88 25.12L25.88 25.12C25.34 24.58 25 23.83 25 23C25 21.34 26.34 20 28 20Z" />
		</g>
	</g>
</svg>